<svg viewBox="0 0 200 200" xmlns="http://www.w3.org/2000/svg">
  <defs>
    <linearGradient id="ringGradient" x1="0%" y1="0%" x2="100%" y2="100%">
      <stop offset="0%" style="stop-color:#5BA3E8;stop-opacity:1" />
      <stop offset="50%" style="stop-color:#4A8FD8;stop-opacity:1" />
      <stop offset="100%" style="stop-color:#1E5FCF;stop-opacity:1" />
    </linearGradient>
  </defs>
  
  <!-- Outer gradient ring -->
  <circle cx="100" cy="100" r="95" fill="none" stroke="url(#ringGradient)" stroke-width="16"/>
  
  <!-- Inner white background -->
  <circle cx="100" cy="100" r="80" fill="#E8EBF3"/>
  
  <!-- M letter (light blue) - rounded contemporary style -->
  <g>
    <path d="M 55 135 L 55 75 Q 55 70 60 65 Q 65 60 70 75 L 75 100 L 85 65 Q 87 60 92 60 Q 97 60 99 75 L 85 135 Q 83 140 78 142 Q 73 140 71 135 L 65 100 L 60 135 Q 58 140 55 142 Q 50 140 50 135 Z" fill="#5BA3E8" stroke="none"/>
    <!-- Adjusted simpler M -->
    <path d="M 55 138 L 55 70 C 55 65 58 62 62 62 C 65 62 68 65 68 70 L 72 100 L 82 65 C 83 62 86 60 89 60 C 92 60 94 62 95 68 L 88 138 C 88 142 85 145 82 145 C 79 145 76 142 76 138 L 72 105 L 68 138 C 68 142 65 145 62 145 C 59 145 55 142 55 138 Z" fill="#5BA3E8"/>
  </g>
  
  <!-- F letter (dark blue) - rounded contemporary style -->
  <g>
    <path d="M 110 138 L 110 70 C 110 65 113 62 117 62 C 125 62 130 62 145 62 C 148 62 150 65 150 68 C 150 71 148 74 145 74 L 118 74 L 118 100 L 140 100 C 143 100 145 102 145 106 C 145 109 143 112 140 112 L 118 112 L 118 138 C 118 142 115 145 112 145 C 109 145 110 142 110 138 Z" fill="#1E5FCF"/>
  </g>
</svg>